<?xml version="1.0" encoding="utf-8"?>
<!-- Generator: Adobe Illustrator 24.1.2, SVG Export Plug-In . SVG Version: 6.00 Build 0)  -->
<svg version="1.1" id="Lager_1" xmlns="http://www.w3.org/2000/svg" xmlns:xlink="http://www.w3.org/1999/xlink" x="0px" y="0px"
	 viewBox="0 0 648.4 135" style="enable-background:new 0 0 648.4 135;" xml:space="preserve">
<style type="text/css">
	.st0{fill:#37C7C9;}
	.st1{fill:#8ADBDB;}
	.st2{fill:#164066;}
</style>
<g>
	<g>
		<path class="st0" d="M43,110.8V27.9L0,45.3v66.2C9.9,111.2,25.2,110.9,43,110.8z"/>
		<path class="st0" d="M112.2,111.6V0L63.9,19.5v91.3C84.3,110.9,101.9,111.2,112.2,111.6z"/>
		<polygon class="st1" points="43,27.9 43,89.4 63.9,110.8 63.9,53.1 		"/>
	</g>
	<g>
		<polygon class="st2" points="210.8,75.9 175.7,19.4 154.2,19.4 154.2,110.8 175.2,110.8 175.2,54.4 210.2,110.8 231.8,110.8 
			231.8,19.4 210.8,19.4 		"/>
		<path class="st2" d="M298.1,54.4c-2.7-3.7-6.3-6.8-10.4-8.9c-4.6-2.3-9.8-3.4-14.9-3.3c-4.8-0.1-9.5,0.9-13.9,2.7
			c-8.2,3.5-14.7,10.3-17.8,18.7c-1.7,4.5-2.5,9.1-2.4,13.9c-0.1,4.8,0.7,9.6,2.4,14.1c1.5,4.2,3.8,7.9,6.8,11.1
			c3,3.2,6.7,5.7,10.8,7.2c4.4,1.7,8.9,2.5,13.6,2.5c0.2,0,0.4,0,0.6,0c7.5,0,14-1.7,19.4-5.2c5.4-3.5,9.4-9.3,12-17.2l0.6-1.8
			h-18.4l-0.3,1c-0.5,1.7-1.9,3.3-4.2,4.9c-2.5,1.7-5.4,2.5-8.4,2.4c-2.3,0-4.3-0.3-6.1-0.9c-1.7-0.6-3.2-1.4-4.4-2.6
			c-2.2-2.1-3.5-5.5-3.8-10.1h46.1l0.1-1.3c0.4-4.9-0.1-9.9-1.3-14.7C302.9,62.5,300.9,58.2,298.1,54.4z M259.2,69.1
			c0.1-0.8,0.3-1.7,0.6-2.5c0.4-1.5,1.1-2.8,2.1-4c1.1-1.3,2.5-2.4,4-3.2c2-0.9,4.2-1.4,6.4-1.3c1.9,0,3.6,0.3,5.1,0.8
			c1.4,0.5,2.6,1.3,3.5,2.3c1.7,1.8,2.9,4.5,3.7,7.9H259.2z"/>
		<path class="st2" d="M338.1,19.5h-20.3v24.4h-10.7v14.5h10.7v36.4c-0.1,2.9,0.5,5.8,1.8,8.5c1.1,2.1,2.8,3.9,5,5.1
			c2.2,1.2,4.5,2,6.9,2.3c2.6,0.4,5.2,0.6,7.7,0.6c1.9,0,3.7,0,5.6-0.1c1.7-0.1,3.4-0.2,5.1-0.5l1.1-0.2V94.1l-1.6,0.3
			c-0.8,0.2-1.6,0.3-2.5,0.4c-0.9,0.1-1.8,0.1-2.8,0.1c-3.4,0-4.5-0.7-4.9-1.1c-0.4-0.4-1.1-1.6-1.1-5V58.4H351V43.9l-12.9,0V19.5z"
			/>
		<rect x="360.7" y="19.5" class="st2" width="20.3" height="17.2"/>
		<polygon class="st2" points="360.7,110.8 381,110.8 381,43.9 360.7,43.9 		"/>
		<path class="st2" d="M436.3,49.8c-1.7-2.1-3.9-3.8-6.3-5.1c-3.6-1.7-7.7-2.6-11.7-2.5c-4.3-0.1-8.6,0.9-12.5,2.8
			c-3.5,1.7-6.6,4.3-9.1,7.4c-2.5,3.2-4.4,6.7-5.5,10.6c-1.3,4-1.9,8.2-1.9,12.4c0,4.3,0.5,8.6,1.6,12.8c1,3.9,2.7,7.6,5.1,10.8
			c2.4,3.1,5.5,5.7,9.1,7.4c4.1,1.9,8.6,2.8,13,2.7c4,0,8-0.9,11.7-2.5c2.5-1.1,4.7-2.8,6.5-4.8v4.5c0.1,4.2-0.9,7.7-3,10.4
			c-2,2.6-5.2,3.9-9.8,3.9c-2.7,0.1-5.3-0.6-7.6-1.8c-2.1-1.1-3.4-3.1-4.2-6l-0.3-1h-20l0.1,1.4c0.2,3.6,1.3,7.1,3.3,10.1
			c1.9,2.8,4.3,5.1,7.1,6.8c2.9,1.7,6,3,9.3,3.8c3.3,0.8,6.6,1.2,9.9,1.2h0.1c7.5,0,13.6-1,18.1-3.1c4-1.7,7.7-4.3,10.6-7.6
			c2.4-2.8,4-6.2,4.8-9.8c0.7-3,1-6,1.1-9.1V43.9h-19.5V49.8z M435.4,82.8c-0.5,1.9-1.4,3.6-2.6,5.2c-1.1,1.5-2.6,2.7-4.2,3.6
			c-1.8,0.9-3.9,1.4-6.1,1.3c-2.1,0.1-4.2-0.5-6-1.5c-1.6-1-3-2.4-4-4c-1.1-1.8-1.8-3.7-2.2-5.7c-0.4-2.2-0.7-4.4-0.7-6.6
			c0-2.2,0.2-4.4,0.8-6.6c0.5-1.9,1.3-3.7,2.4-5.4c1-1.5,2.4-2.7,4-3.6c1.7-0.9,3.5-1.3,5.4-1.3c0.1,0,0.2,0,0.3,0h0.1
			c2.3-0.1,4.5,0.4,6.5,1.4c1.7,0.9,3.1,2.3,4.1,3.9c1.1,1.8,1.9,3.7,2.3,5.8c0.5,2.4,0.7,4.8,0.7,7.2
			C436.3,78.7,436,80.8,435.4,82.8z"/>
		<path class="st2" d="M528,103.3c-0.3-2.7-0.5-5.4-0.5-8.2V61.8c0-4.2-1-7.6-2.9-10.2c-1.9-2.5-4.4-4.6-7.2-5.9
			c-3-1.4-6.2-2.4-9.4-2.8c-3.3-0.5-6.7-0.7-10-0.7c-3.6,0-7.3,0.4-10.9,1.1c-3.5,0.7-6.8,1.9-9.9,3.7c-3,1.7-5.5,4.2-7.4,7l0,0
			c-2.1,3.3-3.2,7.1-3.3,11l0,1.4h20.2l0.1-1.2c0.3-3.1,1.3-5.2,2.9-6.5c1.7-1.3,4.2-2,7.4-2c1.4,0,2.8,0.1,4.2,0.3
			c1.1,0.1,2.2,0.5,3.1,1.1c0.8,0.5,1.5,1.2,2,2c0.6,1.2,0.8,2.5,0.8,3.9V64l0,0.1c0.1,1.1-0.3,2.2-1.1,2.9
			c-1.2,0.9-2.7,1.6-4.2,1.9c-2.2,0.5-4.4,0.9-6.6,1.1c-2.6,0.2-5.3,0.6-7.9,1c-2.7,0.4-5.4,1-8,1.7c-2.6,0.7-5.1,1.8-7.4,3.4
			c-2.2,1.6-4.1,3.7-5.4,6.2c-1.5,3-2.2,6.3-2.1,9.6c-0.1,3.1,0.5,6.3,1.8,9.2c1.1,2.5,2.9,4.7,5.1,6.5c2.2,1.7,4.7,3,7.4,3.7
			c2.8,0.8,5.8,1.2,8.7,1.2h0.3c4.1,0,8.1-0.6,12-1.8c3.1-0.9,6-2.5,8.6-4.6c0,0.2,0.1,0.4,0.1,0.6c0.2,1.1,0.5,2.2,0.9,3.2l0.3,0.9
			h21.1l-1.1-2C528.6,107.1,528.1,105.3,528,103.3z M507.1,84.5c0,1.3-0.1,2.6-0.3,3.8c-0.2,1.6-0.7,3-1.5,4.4
			c-0.9,1.5-2.2,2.8-3.8,3.7c-1.7,1-4.2,1.5-7.4,1.5c-1.3,0-2.6-0.1-3.9-0.4c-1.1-0.2-2.1-0.6-3-1.1c-0.8-0.5-1.4-1.2-1.9-2
			c-0.5-1-0.8-2.2-0.8-3.4c0-1.2,0.2-2.4,0.8-3.4c0.5-0.9,1.1-1.6,1.9-2.2c0.9-0.7,1.9-1.2,3-1.5c1.2-0.4,2.5-0.7,3.7-1
			c1.4-0.2,2.8-0.4,4.1-0.6c1.4-0.2,2.8-0.4,4.1-0.6c1.2-0.2,2.4-0.5,3.6-0.9l0.2-0.1c0.3-0.1,0.7-0.2,1-0.4V84.5z"/>
		<path class="st2" d="M572.2,94.8c-0.8,0.1-1.7,0.1-2.7,0.1c-3.4,0-4.6-0.7-5-1.1c-0.4-0.4-1.1-1.6-1.1-5V58.4h12.9V43.9l-12.9,0
			V19.5h-20.3v24.4h-10.7v14.5h10.7v36.4c-0.1,2.9,0.5,5.8,1.8,8.5c1.1,2.1,2.8,3.9,5,5.1c2.1,1.2,4.5,2,6.9,2.3
			c2.6,0.4,5.2,0.6,7.7,0.6c1.8,0,3.7,0,5.6-0.1c1.7-0.1,3.4-0.2,5.1-0.5l1.1-0.2V94.1l-1.6,0.3C574,94.6,573.1,94.7,572.2,94.8z"/>
		<path class="st2" d="M647,67c-1.1-4.6-3.1-8.8-5.9-12.6c-2.7-3.7-6.3-6.8-10.4-8.9c-4.6-2.3-9.8-3.4-14.9-3.3
			c-4.8-0.1-9.5,0.9-13.9,2.7c-8.2,3.5-14.7,10.3-17.8,18.7c-1.7,4.5-2.5,9.1-2.4,13.9c-0.1,4.8,0.7,9.6,2.4,14.1
			c1.5,4.2,3.8,7.9,6.8,11.1c3,3.2,6.7,5.7,10.8,7.2c4.4,1.7,8.9,2.5,13.6,2.5c0.2,0,0.4,0,0.6,0c7.5,0,14-1.7,19.3-5.2
			c5.4-3.5,9.4-9.3,12-17.2l0.6-1.8h-18.4l-0.3,1c-0.5,1.7-1.9,3.3-4.2,4.9c-2.5,1.7-5.4,2.5-8.4,2.4c-4.6,0-8.1-1.2-10.5-3.5
			c-2.1-2.1-3.4-5.5-3.8-10.1h46.1l0.1-1.3C648.6,76.8,648.2,71.8,647,67z M602.1,69.1c0.1-0.8,0.3-1.7,0.6-2.5
			c0.4-1.5,1.1-2.8,2.1-4c1.1-1.3,2.5-2.4,4-3.2c2-0.9,4.2-1.4,6.4-1.3c3.9,0,6.8,1,8.6,3l0,0c1.7,1.8,3,4.5,3.8,7.9H602.1z"/>
	</g>
</g>
</svg>
